# xmcd
#
# Track frame offsets: 
#        150
#        15790
#        30320
#        44996
#        62352
#        76901
#        89576
#        105268
#        119119
#        127693
#        143454
#        162616
#        181496
#        202937
#        221469
#        241494
#        263034
#        283028
#        307999
#        327686
#
# Disc length: 4626 seconds
#
# Revision: 0
# Processed by: cddbd v1.5.1PL0 Copyright (c) Steve Scherf et al.
# Submitted via: ExactAudioCopy v0.95a5
#
DISCID=11121014
DTITLE=陈慧娴 - 情意结CD1
DYEAR=2002
DGENRE=Acid Jazz
TTITLE0=明天有明天
TTITLE1=柯德莉夏萍穿过的鞋
TTITLE2=情意结
TTITLE3=到处留情
TTITLE4=拈花惹草vs关心研
TTITLE5=肖邦与我
TTITLE6=GLOOMY SUNDAY
TTITLE7=把悲伤看透时
TTITLE8=TOMORROW IS ANOTHER DAY
TTITLE9=傻女的新衣
TTITLE10=三分爱情七分骗
TTITLE11=我心不死
TTITLE12=归来吧
TTITLE13=正是爱
TTITLE14=DANCING BOY
TTITLE15=为你好
TTITLE16=我寂寞
TTITLE17=爱河承诺vs张学友
TTITLE18=奇妙旅程
TTITLE19=睡公主
EXTD=
EXTT0=
EXTT1=
EXTT2=
EXTT3=
EXTT4=
EXTT5=
EXTT6=
EXTT7=
EXTT8=
EXTT9=
EXTT10=
EXTT11=
EXTT12=
EXTT13=
EXTT14=
EXTT15=
EXTT16=
EXTT17=
EXTT18=
EXTT19=
PLAYORDER=
